<svg width="410" height="178" viewBox="0 0 410 178" fill="none" xmlns="http://www.w3.org/2000/svg">
<path d="M22.1019 29.4651H53.2337V60.4854H42.0538V52.2767H40.6778C39.1298 55.6466 35.3458 60.4854 25.1119 60.4854C8.08395 60.4854 0 47.0922 0 31.1068C0 15.1214 8.08395 1.72816 26.6599 1.72816C41.1078 1.72816 50.2237 10.2825 51.0837 21.5155H39.9898C38.8718 16.0718 35.0878 12.9612 26.6599 12.9612C16.1679 12.9612 11.1799 17.1951 11.1799 31.1068C11.1799 45.0184 16.5979 49.2524 27.6918 49.2524C35.9478 49.2524 40.8498 45.7097 42.0538 38.9699H22.1019V29.4651Z" fill="black"/>
<path d="M107.144 15.9854V27.2184H90.6321V60.4854H79.4521V15.9854H107.144Z" fill="black"/>
<path d="M167.158 49.2524H172.748V60.4854H155.978V56.1651C153.828 58.4117 150.474 60.4854 144.024 60.4854C133.532 60.4854 128.63 53.7456 128.63 45.7961C128.63 37.8466 133.532 31.1068 144.024 31.1068C150.474 31.1068 153.828 33.0942 155.978 35.4272V27.2184H133.618V15.9854H167.158V49.2524ZM147.894 50.2893C153.742 50.2893 155.978 49.2524 155.978 45.7961C155.978 42.3398 153.742 41.3029 147.894 41.3029C142.046 41.3029 139.81 42.3398 139.81 45.7961C139.81 49.2524 142.046 50.2893 147.894 50.2893Z" fill="black"/>
<path d="M222.512 15.9854C236.014 15.9854 241.776 25.4903 241.776 38.1922C241.776 50.8942 236.014 60.4854 222.512 60.4854C217.352 60.4854 213.052 58.5845 210.128 55.4738V74.3107H198.948V15.9854H210.128V20.9107C213.052 17.8864 217.352 15.9854 222.512 15.9854ZM220.362 49.2524C227.5 49.2524 230.596 47.0922 230.596 38.1922C230.596 29.3786 227.5 27.2184 220.362 27.2184C213.224 27.2184 210.128 29.3786 210.128 38.1922C210.128 47.0922 213.224 49.2524 220.362 49.2524Z" fill="black"/>
<path d="M306.706 15.9854V60.4854H295.526V27.2184H277.466V60.4854H266.286V0H277.466V15.9854H306.706Z" fill="black"/>
<path d="M333.792 0H344.972V8.64078H333.792V0ZM333.792 15.9854H344.972V60.4854H333.792V15.9854Z" fill="black"/>
<path d="M370.268 38.1922C370.268 25.4903 376.89 15.9854 390.65 15.9854C403.378 15.9854 410 24.7126 410 34.1311H398.82C398.476 30.0699 397.1 27.2184 390.822 27.2184C383.254 27.2184 381.448 30.4155 381.448 38.1922C381.448 45.9689 383.254 49.2524 390.822 49.2524C397.1 49.2524 398.476 46.401 398.82 42.3398H410C410 51.7583 403.378 60.4854 390.65 60.4854C376.89 60.4854 370.268 50.8942 370.268 38.1922Z" fill="black"/>
<path d="M95.7947 103.689H106.975V164.175H95.7947V159.163C92.8707 162.274 88.5708 164.175 83.4108 164.175C69.9089 164.175 64.1469 154.583 64.1469 141.882C64.1469 129.18 69.9089 119.675 83.4108 119.675C88.5708 119.675 92.8707 121.576 95.7947 124.6V103.689ZM85.5608 152.942C92.6987 152.942 95.7947 150.782 95.7947 141.882C95.7947 133.068 92.6987 130.908 85.5608 130.908C78.4228 130.908 75.3268 133.068 75.3268 141.882C75.3268 150.782 78.4228 152.942 85.5608 152.942Z" fill="black"/>
<path d="M170.777 141.017V146.202H143.601C144.547 150.522 147.385 152.942 155.469 152.942C158.049 152.942 161.919 152.942 167.853 151.559V162.619C161.145 164.175 157.877 164.175 154.609 164.175C134.743 164.175 131.905 150.09 131.905 141.968C131.905 129.612 137.237 119.675 151.513 119.675C165.445 119.675 170.777 128.92 170.777 141.017ZM151.341 130.908C146.181 130.908 143.687 132.895 143.171 137.561H159.511C159.167 132.636 156.673 130.908 151.341 130.908Z" fill="black"/>
<path d="M195.232 159.509V147.325C203.058 151.386 208.82 152.942 215.184 152.942C219.312 152.942 221.032 151.905 221.032 149.917C221.032 147.671 219.484 147.325 212.604 146.202C199.102 144.215 195.232 140.413 195.232 132.636C195.232 124.168 202.628 119.675 211.83 119.675C217.592 119.675 224.558 121.23 228.772 123.304V134.537C222.494 132.29 215.7 130.908 210.97 130.908C207.874 130.908 206.412 131.599 206.412 133.327C206.412 135.315 207.53 135.66 214.41 136.956C227.31 139.289 232.212 141.795 232.212 150.263C232.212 159.941 223.956 164.175 214.324 164.175C207.616 164.175 201.51 162.879 195.232 159.509Z" fill="black"/>
<path d="M258.392 103.689H269.572V112.33H258.392V103.689ZM258.392 119.675H269.572V164.175H258.392V119.675Z" fill="black"/>
<path d="M327.439 119.675H338.619V178H303.359V166.767H327.439V155.102C324.859 157.521 321.075 159.854 314.883 159.854C301.983 159.854 295.791 150.954 295.791 139.721C295.791 128.575 301.983 119.675 314.883 119.675C321.075 119.675 324.859 122.008 327.439 124.427V119.675ZM317.205 148.621C324.773 148.621 327.439 146.461 327.439 139.721C327.439 133.068 324.773 130.908 317.205 130.908C309.637 130.908 306.971 133.068 306.971 139.721C306.971 146.461 309.637 148.621 317.205 148.621Z" fill="black"/>
<path d="M406.173 119.675V164.175H394.993V130.908H376.933V164.175H365.753V119.675H406.173Z" fill="black"/>
</svg>
