<svg width="60" height="60" viewBox="0 0 60 60" fill="none" xmlns="http://www.w3.org/2000/svg">
<circle cx="30" cy="30" r="30" fill="black"/>
<path d="M30.1292 17.0326C30.7189 16.797 31.3614 16.726 31.9882 16.8272C32.6151 16.9285 33.2026 17.1981 33.6881 17.6074L33.9089 17.8089L42.1866 26.0878C42.6362 26.5369 42.9552 27.0998 43.1095 27.7163C43.2638 28.3327 43.2476 28.9795 43.0627 29.5875L42.9629 29.8679L38.8187 40.2305C38.5863 40.8106 38.2029 41.318 37.7084 41.7C37.2139 42.0821 36.6263 42.325 36.0064 42.4036L27.1066 43.5164C26.8776 43.5433 26.6381 43.576 26.3882 43.6146L25.6101 43.7408L25.2036 43.8144L23.9367 44.0597L23.0694 44.2455L21.7639 44.5382L20.0905 44.9377L17.371 45.6317L16.239 45.9367C15.9533 46.0152 15.6525 46.0208 15.3642 45.9529C15.0758 45.885 14.8091 45.7457 14.5885 45.548C14.3679 45.3502 14.2004 45.1002 14.1015 44.8209C14.0026 44.5415 13.9754 44.2419 14.0224 43.9493L14.082 43.6934L14.5989 41.7447L15.0615 39.908L15.461 38.2344L15.7536 36.9288L15.9376 36.0595L16.1847 34.7942L16.3249 33.9933L16.437 33.2433L17.5935 23.99C17.6664 23.419 17.8787 22.8747 18.2118 22.4052C18.545 21.9357 18.9886 21.5555 19.5035 21.2982L19.7681 21.1773L30.1292 17.0326ZM31.4294 20.287L21.07 24.4317L20.0467 32.6194L19.9626 33.3134C19.7906 34.6026 19.5655 35.8842 19.288 37.1549L18.9883 38.5323L24.7498 32.7701C24.55 32.0248 24.6018 31.2344 24.897 30.5215C25.1922 29.8086 25.7143 29.2131 26.3824 28.8273C27.0505 28.4414 27.8273 28.2869 28.5922 28.3876C29.3571 28.4883 30.0674 28.8386 30.6129 29.3842C31.1584 29.9298 31.5087 30.6402 31.6094 31.4052C31.7101 32.1702 31.5555 32.9471 31.1698 33.6153C30.784 34.2835 30.1885 34.8057 29.4757 35.1009C28.763 35.3961 27.9727 35.4479 27.2275 35.2481L21.466 41.0104L22.1529 40.8579L23.5267 40.5687C24.3828 40.3939 25.2435 40.2419 26.1078 40.1131L35.5648 38.9284L39.7089 28.5676L31.4294 20.287ZM35.57 14.5142C35.8715 14.2122 36.2729 14.0306 36.6987 14.0035C37.1246 13.9764 37.5457 14.1057 37.883 14.367L38.0477 14.5142L45.4809 21.9484C45.7985 22.263 45.9838 22.6872 45.999 23.134C46.0141 23.5809 45.858 24.0166 45.5624 24.3521C45.2669 24.6875 44.8543 24.8973 44.4091 24.9385C43.964 24.9797 43.5199 24.8491 43.1679 24.5736L43.0032 24.4264L35.57 16.9923C35.2415 16.6636 35.057 16.218 35.057 15.7533C35.057 15.2885 35.2415 14.8429 35.57 14.5142Z" fill="white"/>
</svg>
