<svg width="1370" height="226" viewBox="0 0 1370 226" fill="none" xmlns="http://www.w3.org/2000/svg">
<path d="M54.6816 142.957V222.627H0V3.37313H75.0103C93.7093 3.37313 107.905 6.05023 117.598 11.4044C127.376 16.7586 135.096 24.9505 140.757 35.9801C146.504 47.0097 149.377 59.3779 149.377 73.0846C149.377 93.9659 143.545 110.832 131.879 123.682C120.214 136.532 104.646 142.957 85.1747 142.957H54.6816ZM53.9097 95.8934H71.9224C87.7908 95.8934 95.725 88.6117 95.725 74.0483C95.725 60.3416 88.3912 53.4883 73.7237 53.4883H53.9097V95.8934Z" fill="black"/>
<path d="M245.488 226C220.785 226 200.628 215.774 185.017 195.321C169.492 174.868 161.729 147.508 161.729 113.241C161.729 80.4734 169.149 53.4347 183.988 32.1251C198.912 10.7084 219.584 0 246.003 0C270.449 0 290.349 10.0659 305.702 30.1976C321.142 50.3293 328.862 77.2073 328.862 110.832C328.862 145.634 321.099 173.529 305.574 194.517C290.049 215.506 270.02 226 245.488 226ZM245.231 176.206C254.323 176.206 260.842 171.28 264.788 161.429C268.819 151.47 270.835 133.319 270.835 106.977C270.835 68.8548 262.643 49.7939 246.26 49.7939C228.591 49.7939 219.756 71.5319 219.756 115.008C219.756 155.807 228.248 176.206 245.231 176.206Z" fill="black"/>
<path d="M508.089 222.627H448.261L422.657 138.78H405.673V222.627H351.764V3.37313H443.5C463.743 3.37313 479.44 9.31628 490.591 21.2026C501.827 32.9818 507.446 48.5624 507.446 67.9446C507.446 80.5804 505.387 91.7707 501.27 101.515C497.152 111.153 488.832 119.666 476.309 127.055L508.089 222.627ZM405.673 91.8778H428.704C435.48 91.8778 440.927 90.1109 445.044 86.5771C449.161 83.0434 451.22 77.8498 451.22 70.9964C451.22 56.9685 444.315 49.9545 430.505 49.9545H405.673V91.8778Z" fill="black"/>
<path d="M607.416 55.8977V222.627H556.337V55.8977H519.926V3.37313H643.828V55.8977H607.416Z" fill="black"/>
<path d="M769.017 140.547H711.762V222.627H659.267V3.37313H786.258V55.5764H711.762V91.2353H769.017V140.547Z" fill="black"/>
<path d="M877.737 226C853.033 226 832.876 215.774 817.265 195.321C801.74 174.868 793.977 147.508 793.977 113.241C793.977 80.4734 801.397 53.4347 816.236 32.1251C831.161 10.7084 851.833 0 878.251 0C902.697 0 922.597 10.0659 937.951 30.1976C953.39 50.3293 961.11 77.2073 961.11 110.832C961.11 145.634 953.347 173.529 937.822 194.517C922.297 215.506 902.268 226 877.737 226ZM877.479 176.206C886.571 176.206 893.09 171.28 897.036 161.429C901.068 151.47 903.083 133.319 903.083 106.977C903.083 68.8548 894.892 49.7939 878.509 49.7939C860.839 49.7939 852.004 71.5319 852.004 115.008C852.004 155.807 860.496 176.206 877.479 176.206Z" fill="black"/>
<path d="M1107.14 168.817V222.627H984.012V3.37313H1037.92V168.817H1107.14Z" fill="black"/>
<path d="M1179.97 3.37313V222.627H1126.06V3.37313H1179.97Z" fill="black"/>
<path d="M1286.63 226C1261.92 226 1241.77 215.774 1226.16 195.321C1210.63 174.868 1202.87 147.508 1202.87 113.241C1202.87 80.4734 1210.29 53.4347 1225.13 32.1251C1240.05 10.7084 1260.72 0 1287.14 0C1311.59 0 1331.49 10.0659 1346.84 30.1976C1362.28 50.3293 1370 77.2073 1370 110.832C1370 145.634 1362.24 173.529 1346.71 194.517C1331.19 215.506 1311.16 226 1286.63 226ZM1286.37 176.206C1295.46 176.206 1301.98 171.28 1305.93 161.429C1309.96 151.47 1311.97 133.319 1311.97 106.977C1311.97 68.8548 1303.78 49.7939 1287.4 49.7939C1269.73 49.7939 1260.89 71.5319 1260.89 115.008C1260.89 155.807 1269.39 176.206 1286.37 176.206Z" fill="black"/>
</svg>
